<svg xmlns="http://www.w3.org/2000/svg" viewBox="0 0 1000 1000"><defs><style>.cls-1{fill:#ededed;}.cls-2{fill:#b2b1b1;}</style></defs><title>Asset 1</title><g id="Layer_2" data-name="Layer 2"><g id="Layer_1-2" data-name="Layer 1"><rect class="cls-1" width="1000" height="1000"/><path class="cls-2" d="M500,500A128,128,0,1,0,372,372,128,128,0,0,0,500,500Zm89.6,32H572.9a174.08,174.08,0,0,1-145.8,0H410.4A134.43,134.43,0,0,0,276,666.4V708a48,48,0,0,0,48,48H676a48,48,0,0,0,48-48V666.4A134.43,134.43,0,0,0,589.6,532Z"/></g></g></svg>